<?xml version="1.0" standalone="no"?>
<!DOCTYPE svg PUBLIC "-//W3C//DTD SVG 20010904//EN"
 "http://www.w3.org/TR/2001/REC-SVG-20010904/DTD/svg10.dtd">
<svg version="1.0" xmlns="http://www.w3.org/2000/svg"
 width="608.000000pt" height="608.000000pt" viewBox="0 0 608.000000 608.000000"
 preserveAspectRatio="xMidYMid meet">
<metadata>
Created by potrace 1.14, written by Peter Selinger 2001-2017
</metadata>
<g transform="translate(0.000000,608.000000) scale(0.100000,-0.100000)"
fill="#000000" stroke="none">
<path d="M460 4378 l0 -1703 913 0 c501 0 917 3 922 7 8 5 12 578 6 746 l-1
22 -38 -19 c-88 -45 -150 -53 -444 -57 -170 -3 -249 0 -254 7 -3 6 -6 29 -5
52 0 23 1 51 1 62 0 11 1 43 1 70 1 28 1 56 0 63 -1 11 -1 69 -1 110 0 9 0 72
0 140 0 68 2 127 4 131 6 9 568 6 609 -3 124 -29 212 -95 241 -183 l16 -50
535 0 c378 0 535 3 538 11 7 18 -39 150 -74 213 -68 123 -153 207 -279 274
-38 21 -70 35 -70 32 0 -3 -6 0 -14 6 -17 14 -157 52 -244 65 -7 1 -17 7 -24
14 -8 8 -5 14 16 22 75 28 133 55 149 68 9 8 17 12 17 9 0 -4 17 5 38 19 192
130 296 292 339 529 9 50 9 275 -1 335 -39 260 -179 456 -406 570 -119 59
-255 102 -372 115 -25 3 -57 9 -69 12 -13 4 -480 8 -1036 10 l-1013 4 0 -1703z
m1250 901 c0 -3 20 -3 45 1 25 4 45 4 45 -1 0 -4 15 -4 33 0 17 4 44 4 58 0
15 -3 32 -3 39 1 7 5 18 6 25 4 6 -3 43 -7 81 -9 38 -2 80 -6 94 -9 14 -4 35
-8 46 -10 33 -6 80 -33 119 -68 99 -87 119 -256 45 -384 -24 -41 -99 -100
-155 -122 -47 -19 -205 -50 -205 -41 0 5 -10 5 -22 1 -13 -5 -106 -8 -207 -8
-181 1 -184 1 -192 24 -5 14 -5 22 2 22 6 0 8 4 4 10 -5 8 -9 192 -5 215 1 6
1 15 0 20 -1 6 -1 37 0 70 1 33 1 65 1 70 0 6 0 44 -1 85 0 41 0 87 0 102 0
24 3 27 42 30 66 5 108 4 108 -3z"/>
<path d="M2448 3626 c-6 -5 -3 -1078 3 -1082 5 -3 232 -5 506 -5 l498 0 -1
-1270 0 -1269 585 2 586 3 0 1265 0 1265 315 2 c173 1 399 3 503 3 l187 0 0
544 0 544 -1590 0 c-875 0 -1591 -1 -1592 -2z"/>
</g>
</svg>
