<?xml version="1.0" encoding="UTF-8"?>
<svg id="Layer_2" data-name="Layer 2" xmlns="http://www.w3.org/2000/svg" viewBox="0 0 197.59 45.06">
  <defs>
    <style>
      .cls-1 {
        fill: #fff;
      }

      .cls-2 {
        fill: #231f20;
      }
    </style>
  </defs>
  <g id="Logo_5" data-name="Logo 5">
    <g>
      <g>
        <path class="cls-2" d="m5.89,24.29H0v-6.34h18.56v6.34h-5.86v14.78h-6.82v-14.78Z"/>
        <path class="cls-2" d="m17.92,30.98c0-5.06,2.37-8.45,8.45-8.45,4.86,0,8.1,2.3,8.1,8.19v2.11h-9.98c0,1.31,1.12,2.21,3.97,2.21,1.79,0,3.71-.32,5.54-1.09v4.51c-1.57.67-3.74,1.12-6.62,1.12-5.66,0-9.44-2.4-9.44-8.61Zm11.01-1.86c0-1.34-.64-2.24-2.24-2.24-1.31,0-2.21.64-2.21,2.24h4.45Z"/>
        <path class="cls-2" d="m35.81,30.98c0-5.06,2.5-8.45,8.93-8.45,2.3,0,4.58.32,6.5,1.15v4.99c-1.66-.54-3.42-.93-5.02-.93-2.3,0-3.84.93-3.84,3.26,0,2.05,1.15,3.39,4.06,3.39,1.34,0,3.01-.26,5.02-.93v4.99c-1.54.67-3.65,1.12-6.37,1.12-5.57,0-9.28-2.4-9.28-8.61Z"/>
        <path class="cls-2" d="m53.5,17.32h6.62v8.54h.16c1.25-1.98,2.88-3.33,5.34-3.33,2.66,0,4.58,1.57,4.58,5.63v10.91h-6.62v-8.48c0-1.34-.48-2.24-1.66-2.24-1.09,0-1.79.7-1.79,2.56v8.16h-6.62v-21.76Z"/>
        <path class="cls-2" d="m72.74,23.08h6.46v2.78h.16c1.25-1.98,2.94-3.33,5.44-3.33,2.72,0,4.64,1.57,4.64,5.63v10.91h-6.62v-8.48c0-1.34-.48-2.24-1.66-2.24-1.09,0-1.79.7-1.79,2.56v8.16h-6.62v-16Z"/>
        <path class="cls-2" d="m91.3,31.08c0-5.12,2.43-8.54,8.74-8.54,5.25,0,8.74,2.4,8.74,8.54,0,5.12-2.43,8.51-8.74,8.51-5.25,0-8.74-2.37-8.74-8.51Zm8.74,3.87c1.41,0,2.34-1.09,2.34-3.87,0-2.34-.64-3.87-2.34-3.87-1.41,0-2.34,1.09-2.34,3.87,0,2.34.64,3.87,2.34,3.87Z"/>
        <path class="cls-2" d="m110.72,39.08v-21.76h6.62v21.76h-6.62Z"/>
        <path class="cls-2" d="m119.3,31.08c0-5.12,2.43-8.54,8.74-8.54,5.25,0,8.74,2.4,8.74,8.54,0,5.12-2.43,8.51-8.74,8.51-5.25,0-8.74-2.37-8.74-8.51Zm8.74,3.87c1.41,0,2.34-1.09,2.34-3.87,0-2.34-.64-3.87-2.34-3.87-1.41,0-2.34,1.09-2.34,3.87,0,2.34.64,3.87,2.34,3.87Z"/>
        <path class="cls-2" d="m139.74,44.26v-4.48c1.25.42,2.75.99,5.44.99,2.05,0,4.32-1.15,4.32-3.26v-.38h-.16c-1.44,1.47-3.23,2.46-5.28,2.46-3.58,0-5.95-2.4-5.95-8.58,0-5.06,1.73-8.48,6.14-8.48,1.95,0,3.71.74,4.93,2.56h.16v-2.02h6.46v13.12c0,5.31-3.01,8.86-10.72,8.86-2.08,0-4-.22-5.34-.8Zm7.1-9.31c1.41,0,2.34-1.09,2.34-3.87,0-2.34-.64-3.87-2.34-3.87-1.41,0-2.34,1.09-2.34,3.87,0,2.34.64,3.87,2.34,3.87Z"/>
        <path class="cls-2" d="m161.66,23.43c1.06,0,2.14-.19,3.3-.45v16.09h-6.62v-16.09c1.06.22,2.14.45,3.33.45Zm.03-5.89c2.59,0,3.2.93,3.2,2.34,0,1.76-.96,2.4-3.2,2.4s-3.2-.64-3.2-2.4c0-1.41.61-2.34,3.2-2.34Z"/>
        <path class="cls-2" d="m194.93,30.68c-.28-.13-.87-.38-1.55-.63-1.42-.5-2.97-1-2.97-1.81,0-.56.71-.85,1.79-.85,1.67,0,3.22.66,4.61,1.66v-4.41c-1.67-1.03-3.74-1.47-5.91-1.47-5.1,0-7.11,2.25-7.11,5.13,0,2.07,1.02,3.5,3.03,4.35.53.22,1.52.56,2.54.91,1.08.37,1.64.68,1.64,1.25s-.62.78-1.67.78c-1.8,0-3.68-.63-5.38-1.6-.32.41-.18,1.08-.98-.03-1.82.77-3.74,1.09-5.53,1.09-2.85,0-3.97-.9-3.97-2.21h9.98v-2.11c0-5.89-3.23-8.19-8.09-8.19-6.08,0-8.45,3.39-8.45,8.44,0,6.21,3.78,8.61,9.44,8.61,2.8,0,4.94-.43,6.49-1.07.05-.01.09-.03.13-.05.27-.37.4-.94.98-.07.02.02.04.03.07.05,1.33,1,3.52,1.39,5.93,1.39,5.5,0,7.64-2.09,7.64-5.19,0-2.72-1.67-3.53-2.66-3.97Zm-19.25-3.79c1.6,0,2.24.89,2.24,2.24h-4.45c0-1.6.9-2.24,2.21-2.24Z"/>
      </g>
      <g>
        <path class="cls-1" d="m0,22.06V.62h12.02c6.46,0,7.81,3.15,7.81,5.79,0,2.14-.96,3.75-2.78,4.72,2.48.7,3.79,2.41,3.79,5.02s-1.41,5.91-8.15,5.91H0Zm10.02-5.16c2.77,0,2.77-1.13,2.77-1.5,0-.66-.24-1.41-2.1-1.41h-2.57v2.91h1.9Zm-.33-7.6c2.77,0,2.77-1.13,2.77-1.5,0-.66-.24-1.41-2.11-1.41h-2.24v2.91h1.57Z"/>
        <path class="cls-2" d="m.5,1.1h11.52c4.38,0,7.31,1.49,7.31,5.3,0,2.17-1.04,3.94-3.71,4.78v.16c2.84.34,4.71,1.77,4.71,4.81,0,3.26-2.14,5.43-7.65,5.43H.5V1.1Zm9.18,8.69c1.97,0,3.27-.56,3.27-1.99,0-1.15-.73-1.89-2.61-1.89h-2.74v3.88h2.07Zm.33,7.6c1.97,0,3.27-.56,3.27-1.99,0-1.15-.73-1.89-2.6-1.89h-3.07v3.88h2.4Z"/>
        <rect class="cls-1" x="21.94" width="7.91" height="22.06"/>
        <path class="cls-2" d="m22.44,21.58V.48h6.91v21.09h-6.91Z"/>
        <path class="cls-1" d="m31.6,22.06V5.38l.6.12c1.01.2,2.16.42,3.37.42,1.13,0,2.32-.21,3.34-.42l.6-.12v16.69h-7.91Zm4.01-16.29c-1.79,0-3.84-.32-3.84-2.81,0-1.9,1.18-2.75,3.84-2.75s3.84.85,3.84,2.75c0,2.49-2.05,2.81-3.84,2.81Z"/>
        <path class="cls-2" d="m35.57,6.41c1.1,0,2.24-.19,3.44-.43v15.6h-6.91V5.98c1.1.22,2.24.43,3.47.43Zm.03-5.71c2.71,0,3.34.9,3.34,2.26,0,1.71-1,2.33-3.34,2.33s-3.34-.62-3.34-2.33c0-1.36.64-2.26,3.34-2.26Z"/>
        <path class="cls-1" d="m41.25,27.34V5.58h7.75v1.63c1.43-1.43,3.21-2.15,5.31-2.15,2.92,0,6.41,1.39,6.41,8.02,0,7.84-3.89,9.48-7.15,9.48-1.85,0-3.41-.59-4.58-1.72v6.5h-7.75Zm9.85-16.78c-.48,0-1.94,0-1.94,3.27s1.46,3.27,1.94,3.27,1.94,0,1.94-3.27-1.46-3.27-1.94-3.27Z"/>
        <path class="cls-2" d="m41.75,6.07h6.75v2.26h.17c1.3-1.68,3.14-2.79,5.64-2.79,3.54,0,5.91,2.11,5.91,7.54s-1.87,9-6.65,9c-1.94,0-3.71-.68-4.91-2.39h-.17v7.17h-6.75V6.07Zm9.35,11.51c1.47,0,2.44-1.05,2.44-3.75,0-2.26-.67-3.75-2.44-3.75-1.47,0-2.44,1.05-2.44,3.75,0,2.26.67,3.75,2.44,3.75Z"/>
      </g>
      <path class="cls-2" d="m41.25,22.95c2.56-.54,5.14-.57,7.75.02l-7.75-.02Z"/>
      <path class="cls-2" d="m48.91,27.66h-7.42c-.13,0-.24-.1-.25-.25-.06-.96-.24-4.41.02-4.47s6.37-.01,7.67,0c.14,0,.24.12.24.27v4.18c0,.15-.11.27-.25.27Z"/>
    </g>
    <path class="cls-2" d="m182.84,38.52s.09-.03.13-.05c-.05.08-.1.09-.13.05Z"/>
  </g>
</svg>