<?xml version="1.0" encoding="UTF-8"?>
<svg id="Layer_2" data-name="Layer 2" xmlns="http://www.w3.org/2000/svg" viewBox="0 0 197.59 44.58">
  <defs>
    <style>
      .cls-1 {
        fill: #231f20;
      }
    </style>
  </defs>
  <g id="Logo_5" data-name="Logo 5">
    <g>
      <g>
        <path class="cls-1" d="m0,21.58v2.23h5.89v14.78h6.82v-14.78h5.86v-3.6c-1.31.98-3.3,1.33-5.64,1.37H0Z"/>
        <path class="cls-1" d="m17.92,30.5c0-5.06,2.37-8.45,8.45-8.45,4.86,0,8.1,2.3,8.1,8.19v2.11h-9.98c0,1.31,1.12,2.21,3.97,2.21,1.79,0,3.71-.32,5.54-1.09v4.51c-1.57.67-3.74,1.12-6.62,1.12-5.66,0-9.44-2.4-9.44-8.61Zm11.01-1.86c0-1.34-.64-2.24-2.24-2.24-1.31,0-2.21.64-2.21,2.24h4.45Z"/>
        <path class="cls-1" d="m65.63,22.05c-2.46,0-4.09,1.34-5.34,3.32h-.16v-8.54h-.43c.36-1.23.52-2.66.52-4.24,0-5.43-2.37-7.54-5.91-7.54-2.51,0-4.34,1.12-5.65,2.79h-.16v-2.26h-6.75v16.79c-.11,0-.22.03-.33.06-.04,0-.07,0-.11.03h-.01s-.03,0-.05.01c-.01-.01-.02,0-.02.01-3.85,1.05-5.42,4.01-5.42,8.01,0,6.21,3.71,8.61,9.28,8.61,2.72,0,4.83-.45,6.37-1.12v-4.99c-2.02.67-3.68.93-5.03.93-2.91,0-4.06-1.35-4.06-3.4,0-2.33,1.53-3.26,3.84-3.26,1.6,0,3.36.39,5.02.93v-4.99c-.69-.3-1.42-.53-2.19-.71h-.04s-.02-.01-.02-.01c-.01-.01-.02-.01-.02-.01h-.02s-.03,0-.04-.01h-.01c-.13-.03-.26-.06-.39-.08v-3.18h.16c1.2,1.69,2.94,2.37,4.84,2.39v17h6.63v-8.16c0-1.86.7-2.56,1.79-2.56,1.18,0,1.66.9,1.66,2.24v8.48h6.63v-10.91c0-4.07-1.92-5.63-4.58-5.63Zm-14.53-4.96c-1.77,0-2.44-1.49-2.44-3.75,0-2.7.97-3.76,2.44-3.76,1.77,0,2.44,1.49,2.44,3.76,0,2.69-.97,3.75-2.44,3.75Z"/>
        <path class="cls-1" d="m72.74,22.59h6.46v2.78h.16c1.25-1.98,2.94-3.33,5.44-3.33,2.72,0,4.64,1.57,4.64,5.63v10.91h-6.62v-8.48c0-1.34-.48-2.24-1.66-2.24-1.09,0-1.79.7-1.79,2.56v8.16h-6.62v-16Z"/>
        <path class="cls-1" d="m91.3,30.59c0-5.12,2.43-8.54,8.74-8.54,5.25,0,8.74,2.4,8.74,8.54,0,5.12-2.43,8.51-8.74,8.51-5.25,0-8.74-2.37-8.74-8.51Zm8.74,3.87c1.41,0,2.34-1.09,2.34-3.87,0-2.34-.64-3.87-2.34-3.87-1.41,0-2.34,1.09-2.34,3.87,0,2.34.64,3.87,2.34,3.87Z"/>
        <path class="cls-1" d="m110.72,38.59v-21.76h6.62v21.76h-6.62Z"/>
        <path class="cls-1" d="m119.3,30.59c0-5.12,2.43-8.54,8.74-8.54,5.25,0,8.74,2.4,8.74,8.54,0,5.12-2.43,8.51-8.74,8.51-5.25,0-8.74-2.37-8.74-8.51Zm8.74,3.87c1.41,0,2.34-1.09,2.34-3.87,0-2.34-.64-3.87-2.34-3.87-1.41,0-2.34,1.09-2.34,3.87,0,2.34.64,3.87,2.34,3.87Z"/>
        <path class="cls-1" d="m139.74,43.78v-4.48c1.25.42,2.75.99,5.44.99,2.05,0,4.32-1.15,4.32-3.26v-.38h-.16c-1.44,1.47-3.23,2.46-5.28,2.46-3.58,0-5.95-2.4-5.95-8.58,0-5.06,1.73-8.48,6.14-8.48,1.95,0,3.71.74,4.93,2.56h.16v-2.02h6.46v13.12c0,5.31-3.01,8.86-10.72,8.86-2.08,0-4-.22-5.34-.8Zm7.1-9.31c1.41,0,2.34-1.09,2.34-3.87,0-2.34-.64-3.87-2.34-3.87-1.41,0-2.34,1.09-2.34,3.87,0,2.34.64,3.87,2.34,3.87Z"/>
        <path class="cls-1" d="m161.66,22.95c1.06,0,2.14-.19,3.3-.45v16.09h-6.62v-16.09c1.06.22,2.14.45,3.33.45Zm.03-5.89c2.59,0,3.2.93,3.2,2.34,0,1.76-.96,2.4-3.2,2.4s-3.2-.64-3.2-2.4c0-1.41.61-2.34,3.2-2.34Z"/>
        <path class="cls-1" d="m194.93,30.19c-.28-.13-.87-.38-1.55-.63-1.42-.5-2.97-1-2.97-1.81,0-.56.71-.85,1.79-.85,1.67,0,3.22.66,4.61,1.66v-4.41c-1.67-1.03-3.74-1.47-5.91-1.47-5.1,0-7.11,2.25-7.11,5.13,0,2.07,1.02,3.5,3.03,4.35.53.22,1.52.56,2.54.91,1.08.37,1.64.68,1.64,1.25s-.62.78-1.67.78c-1.8,0-3.68-.63-5.38-1.6-.32.41-.18,1.08-.98-.03-1.82.77-3.74,1.09-5.53,1.09-2.85,0-3.97-.9-3.97-2.21h9.98v-2.11c0-5.89-3.23-8.19-8.09-8.19-6.08,0-8.45,3.39-8.45,8.44,0,6.21,3.78,8.61,9.44,8.61,2.8,0,4.94-.43,6.49-1.07.05-.01.09-.03.13-.05.27-.37.4-.94.98-.07.02.02.04.03.07.05,1.33,1,3.52,1.39,5.93,1.39,5.5,0,7.64-2.09,7.64-5.19,0-2.72-1.67-3.53-2.66-3.97Zm-19.25-3.79c1.6,0,2.24.89,2.24,2.24h-4.45c0-1.6.9-2.24,2.21-2.24Z"/>
      </g>
      <g>
        <path class="cls-1" d="m.03.62h11.52c4.38,0,7.31,1.49,7.31,5.3,0,2.17-1.04,3.94-3.71,4.78v.16c2.84.34,4.71,1.77,4.71,4.81,0,3.26-2.14,5.43-7.65,5.43H.03V.62Zm9.18,8.69c1.97,0,3.27-.56,3.27-1.99,0-1.15-.73-1.89-2.61-1.89h-2.74v3.88h2.07Zm.33,7.6c1.97,0,3.27-.56,3.27-1.99,0-1.15-.73-1.89-2.6-1.89h-3.07v3.88h2.4Z"/>
        <path class="cls-1" d="m22.44,21.09V0h6.91v21.09h-6.91Z"/>
        <path class="cls-1" d="m35.57,5.93c1.1,0,2.24-.19,3.44-.43v15.6h-6.91V5.49c1.1.22,2.24.43,3.47.43Zm.03-5.71c2.71,0,3.34.9,3.34,2.26,0,1.71-1,2.33-3.34,2.33s-3.34-.62-3.34-2.33c0-1.36.64-2.26,3.34-2.26Z"/>
      </g>
    </g>
  </g>
</svg>