<?xml version="1.0" encoding="UTF-8"?>
<svg id="Layer_2" data-name="Layer 2" xmlns="http://www.w3.org/2000/svg" viewBox="0 0 32.07 37.71">
  <defs>
    <style>
      .cls-1 {
        fill: #231f20;
      }
    </style>
  </defs>
  <g id="Logo_3" data-name="Logo 3">
    <g>
      <g>
        <path class="cls-1" d="m11.43,16.3c-.55.35-1.35.5-2.31.5h-2.3v-4h2.94c1.56,0,2.29.58,2.46,1.51h6.68c-.42-2.31-2.07-3.44-4.41-3.75v-.16c2.56-.86,3.55-2.69,3.55-4.93,0-3.94-2.82-5.47-7.01-5.47H0v21.12h11.43v-4.81h0ZM6.82,4.96h2.62c1.79,0,2.5.77,2.5,1.95,0,1.47-1.25,2.05-3.14,2.05h-1.98v-4Z"/>
        <path class="cls-1" d="m12.44,15.31l-.02,5.79c4.72-.21,6.58-2.38,6.58-5.58,0-.08-.02-.14-.02-.22h-6.55Z"/>
      </g>
      <path class="cls-1" d="m18.57,21.96h-6.27v-6.75h19.77v6.75h-6.24v15.75h-7.26v-15.75Z"/>
    </g>
  </g>
</svg>