<?xml version="1.0" encoding="UTF-8"?>
<svg id="Layer_2" data-name="Layer 2" xmlns="http://www.w3.org/2000/svg" viewBox="0 0 33.27 43.81">
  <defs>
    <style>
      .cls-1 {
        stroke: #fff;
        stroke-miterlimit: 10;
      }

      .cls-1, .cls-2 {
        fill: #231f20;
      }
    </style>
  </defs>
  <g id="Logo_3" data-name="Logo 3">
    <g>
      <path class="cls-2" d="m0,0h11.04c4.19,0,7.01,1.54,7.01,5.47,0,2.24-.99,4.06-3.55,4.93v.16c2.72.35,4.51,1.82,4.51,4.96,0,3.36-2.05,5.6-7.33,5.6H0V0Zm8.8,8.96c1.89,0,3.14-.58,3.14-2.05,0-1.18-.7-1.95-2.5-1.95h-2.62v4h1.98Zm.32,7.84c1.89,0,3.14-.58,3.14-2.05,0-1.18-.7-1.95-2.5-1.95h-2.94v4h2.3Z"/>
      <g>
        <polygon class="cls-1" points="18.2 38.36 18.2 22.61 11.93 22.61 11.93 14.8 32.77 14.8 32.77 22.61 26.53 22.61 26.53 38.36 18.2 38.36"/>
        <path class="cls-2" d="m18.74,22.08h-6.27v-6.75h19.77v6.75h-6.24v15.75h-7.26v-15.75Z"/>
      </g>
    </g>
  </g>
</svg>